# xmcd
#
# Track frame offsets:
#   150
#   15960
#   27410
#   53077
#   72070
#   90502
#   103210
#   117870
#   130329
#   146532
#
# Disc length: 2036 seconds
#
# Revision: 0
# Processed by: cddbd v1.4PL0 Copyright (c) Steve Scherf et al.
# Submitted via: uFREEDB ActiveX Control 1.5
#
DISCID=7e07f20a
DTITLE=Santana - 21 Grandes Sucessos (Disco 2)
DYEAR=1900
DGENRE=Blues
TTITLE0=Everybody's Everything
TTITLE1=Persuasion
TTITLE2=Guajira
TTITLE3=Jingo
TTITLE4=Gypsy Queen
TTITLE5=Savor
TTITLE6=Everything's coming our way
TTITLE7=Para los Rumberos
TTITLE8=Batuka
TTITLE9=Castillos de Arena, Part 2 (Sand Castiles)
EXTD=
EXTT0=
EXTT1=
EXTT2=
EXTT3=
EXTT4=
EXTT5=
EXTT6=
EXTT7=
EXTT8=
EXTT9=
PLAYORDER=
